HIERARCHY
ROOT hip
{
	OFFSET	0.00  0.00  0.00 
	CHANNELS 6 Xposition Yposition Zposition Xrotation Zrotation Yrotation
	JOINT waist
	{
		OFFSET	0.000000 2.191865 -0.079388
		CHANNELS 3 Xrotation Zrotation Yrotation
		JOINT abdomen
		{
			OFFSET	0.000000 2.770984 0.119082
			CHANNELS 3 Xrotation Zrotation Yrotation
			JOINT chest
			{
				OFFSET	0.000000 2.879627 -0.290598
				CHANNELS 3 Xrotation Zrotation Yrotation
				JOINT neck
				{
					OFFSET	0.000000 12.342733 -1.613748
					CHANNELS 3 Xrotation Zrotation Yrotation
					JOINT head
					{
						OFFSET	0.000000 4.485597 1.807195
						CHANNELS 3 Xrotation Zrotation Yrotation
						End Site
						{
							OFFSET 0.000000 7.191734 2.024398
						}
					}
				}
				JOINT lCollar
				{
					OFFSET	1.858774 10.237258 -1.915852
					CHANNELS 3 Zrotation Yrotation Xrotation
					JOINT lShldr
					{
						OFFSET	6.103279 0.000102 -0.038601
						CHANNELS 3 Zrotation Yrotation Xrotation
						JOINT lForeArm
						{
							OFFSET	10.574100 -0.365985 -0.655940
							CHANNELS 3 Zrotation Yrotation Xrotation
							JOINT lHand
							{
								OFFSET	13.213392 -0.641131 0.276866
								CHANNELS 3 Zrotation Yrotation Xrotation
								JOINT lThumb1
								{
									OFFSET	1.920964 -1.225712 1.722395
									CHANNELS 3 Zrotation Yrotation Xrotation
									JOINT lThumb2
									{
										OFFSET	0.248544 -0.143036 0.768265
										CHANNELS 3 Zrotation Yrotation Xrotation
										JOINT lThumb3
										{
											OFFSET	0.628484 -0.225174 0.508305
											CHANNELS 3 Zrotation Yrotation Xrotation
											End Site
											{
												OFFSET 0.831712 -0.207978 0.609962
											}
										}
									}
								}
								JOINT lIndex1
								{
									OFFSET	5.093442 -0.710319 1.829884
									CHANNELS 3 Zrotation Yrotation Xrotation
									JOINT lIndex2
									{
										OFFSET	0.889470 -0.051998 0.127073
										CHANNELS 3 Zrotation Yrotation Xrotation
										JOINT lIndex3
										{
											OFFSET	0.889570 -0.155981 0.127073
											CHANNELS 3 Zrotation Yrotation Xrotation
											End Site
											{
												OFFSET 0.797115 -0.294470 0.076252
											}
										}
									}
								}
								JOINT lMid1
								{
									OFFSET	5.154641 -0.519844 0.864111
									CHANNELS 3 Zrotation Yrotation Xrotation
									JOINT lMid2
									{
										OFFSET	0.928821 -0.051992 0.050831
										CHANNELS 3 Zrotation Yrotation Xrotation
										JOINT lMid3
										{
											OFFSET	0.984253 -0.311865 0.050831
											CHANNELS 3 Zrotation Yrotation Xrotation
											End Site
											{
												OFFSET 0.779717 -0.606438 -0.050831
											}
										}
									}
								}
								JOINT lRing1
								{
									OFFSET	4.924408 -0.754930 -0.235503
									CHANNELS 3 Zrotation Yrotation Xrotation
									JOINT lRing2
									{
										OFFSET	0.981624 -0.036924 -0.108278
										CHANNELS 3 Zrotation Yrotation Xrotation
										JOINT lRing3
										{
											OFFSET	0.805613 -0.205247 -0.041717
											CHANNELS 3 Zrotation Yrotation Xrotation
											End Site
											{
												OFFSET 0.667431 -0.470481 -0.035991
											}
										}
									}
								}
								JOINT lPinky1
								{
									OFFSET	4.535460 -0.816635 -1.006206
									CHANNELS 3 Zrotation Yrotation Xrotation
									JOINT lPinky2
									{
										OFFSET	0.690596 -0.064334 -0.168800
										CHANNELS 3 Zrotation Yrotation Xrotation
										JOINT lPinky3
										{
											OFFSET	0.598039 -0.111176 -0.071973
											CHANNELS 3 Zrotation Yrotation Xrotation
											End Site
											{
												OFFSET 0.422025 -0.290925 -0.035981
											}
										}
									}
								}
							}
						}
					}
				}
				JOINT rCollar
				{
					OFFSET	-1.858774 10.237258 -1.915852
					CHANNELS 3 Zrotation Yrotation Xrotation
					JOINT rShldr
					{
						OFFSET	-6.103279 0.000102 -0.038601
						CHANNELS 3 Zrotation Yrotation Xrotation
						JOINT rForeArm
						{
							OFFSET	-10.574100 -0.365985 -0.655940
							CHANNELS 3 Zrotation Yrotation Xrotation
							JOINT rHand
							{
								OFFSET	-13.213392 -0.641131 0.276866
								CHANNELS 3 Zrotation Yrotation Xrotation
								JOINT rIndex1
								{
									OFFSET	-5.093442 -0.710319 1.829884
									CHANNELS 3 Zrotation Yrotation Xrotation
									JOINT rIndex2
									{
										OFFSET	-0.889470 -0.051998 0.127073
										CHANNELS 3 Zrotation Yrotation Xrotation
										JOINT rIndex3
										{
											OFFSET	-0.889570 -0.155981 0.127073
											CHANNELS 3 Zrotation Yrotation Xrotation
											End Site
											{
												OFFSET -0.797115 -0.294470 0.076252
											}
										}
									}
								}
								JOINT rThumb1
								{
									OFFSET	-1.920964 -1.225712 1.722395
									CHANNELS 3 Zrotation Yrotation Xrotation
									JOINT rThumb2
									{
										OFFSET	-0.248544 -0.143036 0.768265
										CHANNELS 3 Zrotation Yrotation Xrotation
										JOINT rThumb3
										{
											OFFSET	-0.628484 -0.225174 0.508305
											CHANNELS 3 Zrotation Yrotation Xrotation
											End Site
											{
												OFFSET -0.831712 -0.207978 0.609962
											}
										}
									}
								}
								JOINT rMid1
								{
									OFFSET	-5.154641 -0.519844 0.864111
									CHANNELS 3 Zrotation Yrotation Xrotation
									JOINT rMid2
									{
										OFFSET	-0.928821 -0.051992 0.050831
										CHANNELS 3 Zrotation Yrotation Xrotation
										JOINT rMid3
										{
											OFFSET	-0.984253 -0.311865 0.050831
											CHANNELS 3 Zrotation Yrotation Xrotation
											End Site
											{
												OFFSET -0.779717 -0.606438 -0.050831
											}
										}
									}
								}
								JOINT rRing1
								{
									OFFSET	-4.924408 -0.754930 -0.235503
									CHANNELS 3 Zrotation Yrotation Xrotation
									JOINT rRing2
									{
										OFFSET	-0.981624 -0.036924 -0.108278
										CHANNELS 3 Zrotation Yrotation Xrotation
										JOINT rRing3
										{
											OFFSET	-0.805613 -0.205247 -0.041717
											CHANNELS 3 Zrotation Yrotation Xrotation
											End Site
											{
												OFFSET -0.667431 -0.470481 -0.035991
											}
										}
									}
								}
								JOINT rPinky1
								{
									OFFSET	-4.535460 -0.816635 -1.006206
									CHANNELS 3 Zrotation Yrotation Xrotation
									JOINT rPinky2
									{
										OFFSET	-0.690596 -0.064334 -0.168800
										CHANNELS 3 Zrotation Yrotation Xrotation
										JOINT rPinky3
										{
											OFFSET	-0.598039 -0.111176 -0.071973
											CHANNELS 3 Zrotation Yrotation Xrotation
											End Site
											{
												OFFSET -0.422025 -0.290925 -0.035981
											}
										}
									}
								}
							}
						}
					}
				}
			}
		}
	}
	JOINT lThigh
	{
		OFFSET	5.761895 -0.730553 0.000101
		CHANNELS 3 Xrotation Zrotation Yrotation
		JOINT lShin
		{
			OFFSET	-1.171020 -18.459274 1.627449
			CHANNELS 3 Xrotation Zrotation Yrotation
			JOINT lFoot
			{
				OFFSET	-0.883715 -16.872776 -3.357785
				CHANNELS 3 Xrotation Zrotation Yrotation
				JOINT lToe
				{
					OFFSET	1.287613 -2.778491 2.836049
					CHANNELS 3 Xrotation Yrotation Zrotation
					End Site
					{
						OFFSET 1.362641 -0.436631 3.828194
					}
				}
			}
		}
	}
	JOINT rThigh
	{
		OFFSET	-5.761895 -0.730553 0.000101
		CHANNELS 3 Xrotation Zrotation Yrotation
		JOINT rShin
		{
			OFFSET	1.171020 -18.459274 1.627449
			CHANNELS 3 Xrotation Zrotation Yrotation
			JOINT rFoot
			{
				OFFSET	0.883715 -16.872776 -3.357785
				CHANNELS 3 Xrotation Zrotation Yrotation
				JOINT rToe
				{
					OFFSET	-1.287613 -2.778491 2.836049
					CHANNELS 3 Xrotation Yrotation Zrotation
					End Site
					{
						OFFSET -1.362641 -0.436631 3.828194
					}
				}
			}
		}
	}
}
MOTION
Frames:     5
Frame Time: 0.033333
-0.013274 37.988262 -0.646068 2.998052 -1.023702 0.977748 -0.009766 0.000000 0.000000 0.909414 1.278555 -6.884613 0.876161 8.636648 -9.135335 4.880222 0.876262 -0.542711 -15.606188 0.000000 0.000000 14.358677 11.780155 -7.070275 -88.185699 -16.973648 26.151663 -6.222500 -15.409022 -12.461389 -14.516745 10.794662 59.982254 -11.345314 9.327705 7.166265 8.882480 6.216591 0.874073 6.464220 23.572075 3.705773 -4.647461 6.815200 -14.977687 0.006864 3.147345 2.349544 1.341372 2.952914 1.365262 -9.717045 -1.769058 -6.618793 8.319654 -1.841496 -14.223416 -5.566447 1.990521 -1.851697 -47.786743 -14.223042 -7.366983 -43.684422 0.854969 -5.748193 -39.589340 1.821565 -2.032259 -26.817776 -11.641875 -12.959000 -40.680405 -1.683441 -4.672142 -46.736443 -1.482368 -4.838564 -0.746297 -6.661106 3.985734 74.311310 13.864409 37.237698 -3.478544 -11.125220 26.893843 5.644898 -16.256947 6.138790 9.678567 -6.396327 14.304591 4.340456 0.021981 0.624052 2.035630 2.220714 -0.988950 -4.168463 -18.038963 14.215630 -0.563656 -3.519369 0.636199 -0.236807 -0.289113 -0.119386 5.001613 4.431896 0.181979 4.310706 -3.318547 1.657532 -6.985992 -0.939946 2.491280 30.251804 23.520344 -6.115981 76.956566 -1.368370 -5.884264 63.454067 33.950558 3.585526 15.459989 16.594481 -7.563146 67.388199 4.382622 -1.190984 64.505180 27.804502 -4.471035 16.384703 -4.717150 -0.620566 17.611902 -2.634070 -0.300720 2.267127 0.331560 9.422421 -22.538574 -1.994808 7.701910 -26.443386 3.717070 -19.412790 18.611776 1.782566 0.990238 3.318043 -5.138000 -2.916418 -12.251210 0.691461 -4.290733 
-0.013274 37.801437 -0.646068 3.037107 -0.099228 0.086112 -0.009766 0.000000 0.000000 1.567786 2.506914 -7.621425 2.176403 8.641602 -11.011197 4.802092 0.876262 -0.542711 -14.873764 0.000000 0.000000 14.397785 11.819160 -7.060252 -87.532280 -13.864317 26.109385 -7.041824 -15.163743 -12.011407 -14.602794 10.917637 60.038132 -11.187521 9.266953 7.245107 8.810824 6.253815 0.795755 6.263395 23.637899 3.463058 -4.647461 6.815200 -14.977687 0.006864 3.147345 2.349544 1.341372 2.952914 1.365262 -9.717045 -1.769058 -6.618793 8.319654 -1.841496 -14.223416 -5.566447 1.990521 -1.851697 -47.786743 -14.223042 -7.366983 -43.684422 0.854969 -5.748193 -39.589340 1.821565 -2.032259 -26.817776 -11.641875 -12.959000 -40.680405 -1.683441 -4.672142 -46.736443 -1.482368 -4.838564 -0.746300 -6.641574 3.985744 74.313713 13.756647 37.265621 -2.046426 -14.659907 26.975990 -0.175452 -12.723383 6.787481 9.678567 -6.396327 14.304591 4.340456 0.021981 0.624052 2.035630 2.220714 -0.988950 -3.488683 -18.392452 13.815447 -0.556301 -3.518406 0.641968 -0.236807 -0.289113 -0.119386 5.001613 4.431896 0.181979 4.310706 -3.318547 1.657532 -6.985992 -0.939946 2.491280 30.251804 23.520344 -6.115981 76.956566 -1.368370 -5.884264 63.454067 33.950558 3.585526 15.459989 16.594481 -7.563146 67.388199 4.382622 -1.190984 64.505180 27.804502 -4.471035 13.030972 -6.190301 -0.773426 25.193027 -2.900330 -0.999572 -0.800497 0.552589 10.579254 -13.038431 -0.784919 4.539018 -25.849661 2.491465 -18.788465 23.396158 1.319259 1.376518 -0.921938 -6.584836 -0.704517 -0.009397 -0.009583 -0.013020 
-0.013274 37.444912 -0.646068 3.105468 1.014105 -0.987698 -0.009766 0.000000 0.000000 2.271270 3.842189 -8.239598 3.718715 8.309299 -11.761889 4.753265 0.876262 -0.542711 -13.848373 0.000000 0.000000 14.358677 11.780155 -7.070275 -86.694733 -10.271722 26.159428 -8.102044 -14.851725 -11.052910 -14.516745 10.794662 59.982254 -11.345314 9.327705 7.166265 8.882480 6.216591 0.874073 6.464220 23.572075 3.705773 -4.647461 6.815200 -14.977687 0.006864 3.147345 2.349544 1.341372 2.952914 1.365262 -9.717045 -1.769058 -6.618793 8.319654 -1.841496 -14.223416 -5.566447 1.990521 -1.851697 -47.786743 -14.223042 -7.366983 -43.684422 0.854969 -5.748193 -39.589340 1.821565 -2.032259 -26.817776 -11.641875 -12.959000 -40.680405 -1.683441 -4.672142 -46.736443 -1.482368 -4.838564 -0.746297 -6.661106 3.985734 74.311310 13.864409 37.237698 -0.445357 -18.530689 26.961103 -6.322157 -9.111238 7.278749 9.678567 -6.396327 14.304591 4.340456 0.021981 0.624052 2.035630 2.220714 -0.988950 -2.060133 -19.121880 12.970303 -0.575452 -3.513995 0.651429 -0.236807 -0.289113 -0.119386 5.001613 4.431896 0.181979 4.310706 -3.318547 1.657532 -6.985992 -0.939946 2.491280 30.251804 23.520344 -6.115981 76.956566 -1.368370 -5.884264 63.454067 33.950558 3.585526 15.459989 16.594481 -7.563146 67.388199 4.382622 -1.190984 64.505180 27.804502 -4.471035 9.188256 -8.496199 -1.392928 34.180714 -3.103328 -1.841011 4.835126 -0.912596 14.737029 -12.772685 -0.758786 4.448292 -26.560709 1.228756 -18.299803 28.009684 0.607971 1.685465 -5.254858 -7.613847 3.518171 -0.009397 -0.009583 -0.013020 
-0.013274 36.788868 -0.646068 3.115250 2.127433 -2.061152 -0.009766 0.000000 0.000000 2.714568 4.726476 -8.026537 4.862070 7.075065 -8.594708 4.665375 0.876262 -0.542711 -12.764387 0.000000 0.000000 14.075151 11.507141 -7.140498 -85.659653 -7.092325 26.502768 -9.380499 -14.479724 -8.957991 -13.869177 9.874785 59.493069 -12.566592 9.809807 6.472110 9.433783 5.928869 1.525653 8.084927 22.985565 5.695945 -4.647461 6.815200 -14.977687 0.006864 3.147345 2.349544 1.341372 2.952914 1.365262 -9.717045 -1.769058 -6.618793 8.319654 -1.841496 -14.223416 -5.566447 1.990521 -1.851697 -47.786743 -14.223042 -7.366983 -43.684422 0.854969 -5.748193 -39.589340 1.821565 -2.032259 -26.817776 -11.641875 -12.959000 -40.680405 -1.683441 -4.672142 -46.736443 -1.482368 -4.838564 -0.746274 -6.827121 3.985651 74.312248 14.716743 37.038532 0.868146 -21.335287 26.462734 -9.724239 -7.235629 6.871023 9.678567 -6.396327 14.304591 4.340456 0.021981 0.624052 2.035630 2.220714 -0.988950 1.414789 -20.785221 10.895741 -0.600494 -3.506897 0.668800 -0.236807 -0.289113 -0.119386 5.001613 4.431896 0.181979 4.310706 -3.318547 1.657532 -6.985992 -0.939946 2.491280 30.251804 23.520344 -6.115981 76.956566 -1.368370 -5.884264 63.454067 33.950558 3.585526 15.459989 16.594481 -7.563146 67.388199 4.382622 -1.190984 64.505180 27.804502 -4.471035 3.670922 -10.773860 -1.108880 44.212448 -3.382166 -2.853817 17.175924 -4.890270 18.705055 -12.470236 -0.729562 4.344789 -28.847124 -0.323384 -17.644817 35.723930 -0.015047 2.091122 -9.256625 -8.512980 6.910829 -0.009397 -0.009583 -0.013020 
-0.013274 36.270885 -0.646068 2.998086 3.051882 -2.952655 -0.009766 0.000000 0.000000 2.882770 5.134297 -7.004962 4.935000 5.535004 -4.747222 4.440766 0.876262 -0.542711 -11.846418 0.000000 0.000000 13.547253 11.000093 -7.270936 -84.454727 -4.433763 27.170038 -10.566571 -13.850949 -6.703097 -12.626444 8.138908 58.578651 -14.935886 10.695168 5.133437 10.503282 5.344069 2.799360 11.416332 21.616152 9.822803 -4.647461 6.815200 -14.977687 0.006864 3.147345 2.349544 1.341372 2.952914 1.365262 -9.717045 -1.769058 -6.618793 8.319654 -1.841496 -14.223416 -5.566447 1.990521 -1.851697 -47.786743 -14.223042 -7.366983 -43.684422 0.854969 -5.748193 -39.589340 1.821565 -2.032259 -26.817776 -11.641875 -12.959000 -40.680405 -1.683441 -4.672142 -46.736443 -1.482368 -4.838564 -0.746232 -7.129856 3.985501 74.305969 16.333319 36.638126 1.996157 -22.882601 25.114040 -10.258018 -7.062881 5.715485 9.678567 -6.396327 14.304591 4.340456 0.021981 0.624052 2.035630 2.220714 -0.988950 7.625975 -23.437506 7.041679 -0.644683 -3.495381 0.695622 -0.236807 -0.289113 -0.119386 5.001613 4.431896 0.181979 4.310706 -3.318547 1.657532 -6.985992 -0.939946 2.491280 30.251804 23.520344 -6.115981 76.956566 -1.368370 -5.884264 63.454067 33.950558 3.585526 15.459989 16.594481 -7.563146 67.388199 4.382622 -1.190984 64.505180 27.804502 -4.471035 0.884782 -11.982207 -0.697835 46.037148 -3.458292 -3.058271 1.080713 -2.041220 17.871328 -12.204406 -0.704331 4.253676 -27.769655 -0.835926 -15.907773 39.943794 -0.636225 2.236852 -15.418936 -8.728908 8.105340 -0.009397 -0.009583 -0.013020 
